<?xml version="1.0" standalone="no"?>
<!DOCTYPE svg PUBLIC "-//W3C//DTD SVG 20010904//EN"
 "http://www.w3.org/TR/2001/REC-SVG-20010904/DTD/svg10.dtd">
<svg version="1.0" xmlns="http://www.w3.org/2000/svg"
 width="360.000000pt" height="360.000000pt" viewBox="0 0 360.000000 360.000000"
 preserveAspectRatio="xMidYMid meet">
<metadata>
Created by potrace 1.11, written by Peter Selinger 2001-2013
</metadata>
<g transform="translate(0.000000,360.000000) scale(0.100000,-0.100000)"
fill="#000000" stroke="none">
<path d="M1727 3594 c-1 -1 -38 -4 -82 -8 -44 -3 -91 -8 -105 -11 -13 -2 -41
-7 -62 -10 -76 -12 -308 -77 -333 -95 -5 -3 -32 -15 -60 -25 -27 -10 -72 -31
-98 -47 -26 -15 -51 -28 -55 -28 -5 0 -53 -30 -107 -67 l-100 -68 -190 -5
-190 -5 0 -190 c0 -104 -3 -192 -6 -195 -4 -3 -28 -38 -54 -78 -78 -122 -193
-378 -211 -472 -3 -14 -14 -59 -24 -100 -19 -76 -24 -108 -37 -235 -15 -153
-4 -364 28 -505 5 -25 11 -55 14 -68 2 -12 6 -26 9 -30 3 -5 8 -24 11 -42 18
-99 136 -361 220 -485 l47 -70 0 -187 -1 -188 37 -1 c20 0 103 -1 184 -2 l147
-3 74 -51 c88 -62 256 -152 347 -186 86 -33 103 -39 115 -43 27 -9 122 -35
140 -38 11 -2 38 -9 60 -15 110 -29 338 -42 510 -28 137 11 341 56 460 102 22
9 49 19 59 22 57 18 234 113 320 171 l100 67 160 1 c89 1 171 3 183 3 l23 1
-2 184 c-1 165 0 186 18 213 66 105 124 205 124 215 0 6 6 19 13 27 27 33 98
226 126 342 31 131 39 178 48 279 15 161 1 401 -29 515 -5 22 -11 47 -13 55
-3 13 -30 115 -39 145 -3 10 -5 16 -39 105 -33 88 -105 228 -164 319 l-54 84
2 179 c1 98 -1 181 -4 185 -4 3 -89 7 -189 8 l-183 2 -90 60 c-178 119 -389
210 -580 249 -5 1 -28 6 -50 12 -38 11 -62 14 -185 28 -51 6 -238 12 -243 8z"/>
</g>
</svg>
